<mxfile host="app.diagrams.net" modified="2022-12-13T03:26:59.736Z" agent="5.0 (Windows NT 10.0; Win64; x64) AppleWebKit/537.36 (KHTML, like Gecko) Chrome/108.0.0.0 Safari/537.36" version="20.6.2" etag="Tm8VNcu1CUHXE8DowvbU" type="github">
  <diagram id="foLpXA30bVdRYD6Alfg6" name="第 1 页">
    <mxGraphModel dx="1422" dy="786" grid="1" gridSize="10" guides="1" tooltips="1" connect="1" arrows="1" fold="1" page="1" pageScale="1" pageWidth="827" pageHeight="1169" math="0" shadow="0">
      <root>
        <mxCell id="0" />
        <mxCell id="1" parent="0" />
        <mxCell id="yTwdtCPdqt0kAIuydsNr-6" value="做日计划" style="ellipse;whiteSpace=wrap;html=1;" vertex="1" parent="1">
          <mxGeometry x="361" y="180" width="95" height="30" as="geometry" />
        </mxCell>
        <mxCell id="yTwdtCPdqt0kAIuydsNr-7" value="上报日计划" style="ellipse;whiteSpace=wrap;html=1;" vertex="1" parent="1">
          <mxGeometry x="361" y="120" width="89" height="30" as="geometry" />
        </mxCell>
        <mxCell id="yTwdtCPdqt0kAIuydsNr-13" value="删除日计划" style="ellipse;whiteSpace=wrap;html=1;" vertex="1" parent="1">
          <mxGeometry x="366" y="260" width="90" height="30" as="geometry" />
        </mxCell>
        <mxCell id="yTwdtCPdqt0kAIuydsNr-20" value="推送日计划" style="ellipse;whiteSpace=wrap;html=1;" vertex="1" parent="1">
          <mxGeometry x="366" y="340" width="84" height="30" as="geometry" />
        </mxCell>
        <mxCell id="yTwdtCPdqt0kAIuydsNr-22" value="" style="endArrow=classic;html=1;rounded=0;entryX=0.05;entryY=0.7;entryDx=0;entryDy=0;entryPerimeter=0;" edge="1" parent="1" target="yTwdtCPdqt0kAIuydsNr-6">
          <mxGeometry width="50" height="50" relative="1" as="geometry">
            <mxPoint x="170" y="400" as="sourcePoint" />
            <mxPoint x="336" y="60" as="targetPoint" />
          </mxGeometry>
        </mxCell>
        <mxCell id="yTwdtCPdqt0kAIuydsNr-23" value="保存项目计划" style="ellipse;whiteSpace=wrap;html=1;" vertex="1" parent="1">
          <mxGeometry x="366" y="440" width="90" height="40" as="geometry" />
        </mxCell>
        <mxCell id="yTwdtCPdqt0kAIuydsNr-24" value="删除项目计划" style="ellipse;whiteSpace=wrap;html=1;" vertex="1" parent="1">
          <mxGeometry x="366" y="490" width="90" height="40" as="geometry" />
        </mxCell>
        <mxCell id="yTwdtCPdqt0kAIuydsNr-26" value="查看项目计划" style="ellipse;whiteSpace=wrap;html=1;" vertex="1" parent="1">
          <mxGeometry x="366" y="390" width="90" height="40" as="geometry" />
        </mxCell>
        <mxCell id="yTwdtCPdqt0kAIuydsNr-27" value="上报项目计划" style="ellipse;whiteSpace=wrap;html=1;" vertex="1" parent="1">
          <mxGeometry x="366" y="540" width="90" height="40" as="geometry" />
        </mxCell>
        <mxCell id="yTwdtCPdqt0kAIuydsNr-28" value="审批项目计划" style="ellipse;whiteSpace=wrap;html=1;" vertex="1" parent="1">
          <mxGeometry x="366" y="595" width="90" height="40" as="geometry" />
        </mxCell>
        <mxCell id="yTwdtCPdqt0kAIuydsNr-35" value="监理" style="shape=umlActor;verticalLabelPosition=bottom;verticalAlign=top;html=1;" vertex="1" parent="1">
          <mxGeometry x="660" y="635" width="30" height="60" as="geometry" />
        </mxCell>
        <mxCell id="yTwdtCPdqt0kAIuydsNr-40" value="创建项目计划明细" style="ellipse;whiteSpace=wrap;html=1;" vertex="1" parent="1">
          <mxGeometry x="506" y="420" width="100" height="40" as="geometry" />
        </mxCell>
        <mxCell id="yTwdtCPdqt0kAIuydsNr-41" value="删除项目计划明细" style="ellipse;whiteSpace=wrap;html=1;" vertex="1" parent="1">
          <mxGeometry x="506" y="480" width="100" height="40" as="geometry" />
        </mxCell>
        <mxCell id="yTwdtCPdqt0kAIuydsNr-42" value="" style="endArrow=classic;html=1;rounded=0;entryX=0;entryY=0.5;entryDx=0;entryDy=0;" edge="1" parent="1" target="yTwdtCPdqt0kAIuydsNr-26">
          <mxGeometry width="50" height="50" relative="1" as="geometry">
            <mxPoint x="170" y="400" as="sourcePoint" />
            <mxPoint x="316" y="330" as="targetPoint" />
          </mxGeometry>
        </mxCell>
        <mxCell id="yTwdtCPdqt0kAIuydsNr-43" value="" style="endArrow=classic;html=1;rounded=0;entryX=0;entryY=0.5;entryDx=0;entryDy=0;" edge="1" parent="1" target="yTwdtCPdqt0kAIuydsNr-23">
          <mxGeometry width="50" height="50" relative="1" as="geometry">
            <mxPoint x="170" y="400" as="sourcePoint" />
            <mxPoint x="326" y="620" as="targetPoint" />
          </mxGeometry>
        </mxCell>
        <mxCell id="yTwdtCPdqt0kAIuydsNr-44" value="" style="endArrow=classic;html=1;rounded=0;entryX=0;entryY=0.5;entryDx=0;entryDy=0;" edge="1" parent="1" target="yTwdtCPdqt0kAIuydsNr-24">
          <mxGeometry width="50" height="50" relative="1" as="geometry">
            <mxPoint x="170" y="400" as="sourcePoint" />
            <mxPoint x="346" y="670" as="targetPoint" />
          </mxGeometry>
        </mxCell>
        <mxCell id="yTwdtCPdqt0kAIuydsNr-45" value="" style="endArrow=classic;html=1;rounded=0;entryX=0;entryY=0.5;entryDx=0;entryDy=0;" edge="1" parent="1" target="yTwdtCPdqt0kAIuydsNr-27">
          <mxGeometry width="50" height="50" relative="1" as="geometry">
            <mxPoint x="170" y="400" as="sourcePoint" />
            <mxPoint x="356" y="670" as="targetPoint" />
          </mxGeometry>
        </mxCell>
        <mxCell id="yTwdtCPdqt0kAIuydsNr-47" value="" style="endArrow=classic;html=1;rounded=0;exitX=1;exitY=0.5;exitDx=0;exitDy=0;entryX=0;entryY=0.5;entryDx=0;entryDy=0;" edge="1" parent="1" source="yTwdtCPdqt0kAIuydsNr-23" target="yTwdtCPdqt0kAIuydsNr-40">
          <mxGeometry width="50" height="50" relative="1" as="geometry">
            <mxPoint x="556" y="720" as="sourcePoint" />
            <mxPoint x="606" y="670" as="targetPoint" />
          </mxGeometry>
        </mxCell>
        <mxCell id="yTwdtCPdqt0kAIuydsNr-48" value="" style="endArrow=classic;html=1;rounded=0;exitX=1;exitY=0.5;exitDx=0;exitDy=0;entryX=0;entryY=0.5;entryDx=0;entryDy=0;" edge="1" parent="1" source="yTwdtCPdqt0kAIuydsNr-23" target="yTwdtCPdqt0kAIuydsNr-41">
          <mxGeometry width="50" height="50" relative="1" as="geometry">
            <mxPoint x="546" y="700" as="sourcePoint" />
            <mxPoint x="596" y="650" as="targetPoint" />
          </mxGeometry>
        </mxCell>
        <mxCell id="yTwdtCPdqt0kAIuydsNr-49" value="" style="endArrow=classic;html=1;rounded=0;entryX=1;entryY=0.5;entryDx=0;entryDy=0;" edge="1" parent="1" target="yTwdtCPdqt0kAIuydsNr-28">
          <mxGeometry width="50" height="50" relative="1" as="geometry">
            <mxPoint x="656" y="560" as="sourcePoint" />
            <mxPoint x="606" y="700" as="targetPoint" />
          </mxGeometry>
        </mxCell>
        <mxCell id="yTwdtCPdqt0kAIuydsNr-56" value="" style="endArrow=classic;html=1;rounded=0;entryX=0.978;entryY=0.675;entryDx=0;entryDy=0;entryPerimeter=0;" edge="1" parent="1" source="yTwdtCPdqt0kAIuydsNr-35" target="yTwdtCPdqt0kAIuydsNr-28">
          <mxGeometry width="50" height="50" relative="1" as="geometry">
            <mxPoint x="396" y="720" as="sourcePoint" />
            <mxPoint x="446" y="670" as="targetPoint" />
          </mxGeometry>
        </mxCell>
        <mxCell id="yTwdtCPdqt0kAIuydsNr-57" value="变更项目计划" style="ellipse;whiteSpace=wrap;html=1;" vertex="1" parent="1">
          <mxGeometry x="366" y="650" width="90" height="40" as="geometry" />
        </mxCell>
        <mxCell id="yTwdtCPdqt0kAIuydsNr-59" value="审批项目计划变更" style="ellipse;whiteSpace=wrap;html=1;" vertex="1" parent="1">
          <mxGeometry x="366" y="710" width="90" height="50" as="geometry" />
        </mxCell>
        <mxCell id="yTwdtCPdqt0kAIuydsNr-60" value="" style="endArrow=classic;html=1;rounded=0;entryX=0;entryY=0.5;entryDx=0;entryDy=0;" edge="1" parent="1" target="yTwdtCPdqt0kAIuydsNr-57">
          <mxGeometry width="50" height="50" relative="1" as="geometry">
            <mxPoint x="170" y="400" as="sourcePoint" />
            <mxPoint x="326" y="290" as="targetPoint" />
          </mxGeometry>
        </mxCell>
        <mxCell id="yTwdtCPdqt0kAIuydsNr-61" value="" style="endArrow=classic;html=1;rounded=0;entryX=1.011;entryY=0.26;entryDx=0;entryDy=0;entryPerimeter=0;" edge="1" parent="1" target="yTwdtCPdqt0kAIuydsNr-59">
          <mxGeometry width="50" height="50" relative="1" as="geometry">
            <mxPoint x="656" y="560" as="sourcePoint" />
            <mxPoint x="906" y="550" as="targetPoint" />
          </mxGeometry>
        </mxCell>
        <mxCell id="yTwdtCPdqt0kAIuydsNr-62" value="" style="endArrow=classic;html=1;rounded=0;entryX=1;entryY=0.5;entryDx=0;entryDy=0;" edge="1" parent="1" target="yTwdtCPdqt0kAIuydsNr-57">
          <mxGeometry width="50" height="50" relative="1" as="geometry">
            <mxPoint x="656" y="660" as="sourcePoint" />
            <mxPoint x="896" y="620" as="targetPoint" />
          </mxGeometry>
        </mxCell>
        <mxCell id="yTwdtCPdqt0kAIuydsNr-63" value="关联项目计划" style="ellipse;whiteSpace=wrap;html=1;" vertex="1" parent="1">
          <mxGeometry x="540" y="170" width="90" height="40" as="geometry" />
        </mxCell>
        <mxCell id="yTwdtCPdqt0kAIuydsNr-65" value="" style="endArrow=classic;html=1;rounded=0;entryX=0;entryY=0.5;entryDx=0;entryDy=0;" edge="1" parent="1" target="yTwdtCPdqt0kAIuydsNr-13">
          <mxGeometry width="50" height="50" relative="1" as="geometry">
            <mxPoint x="170" y="400" as="sourcePoint" />
            <mxPoint x="180" y="260" as="targetPoint" />
          </mxGeometry>
        </mxCell>
        <mxCell id="yTwdtCPdqt0kAIuydsNr-67" value="" style="endArrow=classic;html=1;rounded=0;entryX=0;entryY=0.5;entryDx=0;entryDy=0;" edge="1" parent="1" target="yTwdtCPdqt0kAIuydsNr-20">
          <mxGeometry width="50" height="50" relative="1" as="geometry">
            <mxPoint x="170" y="400" as="sourcePoint" />
            <mxPoint x="250" y="210" as="targetPoint" />
          </mxGeometry>
        </mxCell>
        <mxCell id="yTwdtCPdqt0kAIuydsNr-68" value="" style="endArrow=classic;html=1;rounded=0;exitX=1;exitY=0.5;exitDx=0;exitDy=0;entryX=0;entryY=0.5;entryDx=0;entryDy=0;" edge="1" parent="1" source="yTwdtCPdqt0kAIuydsNr-6" target="yTwdtCPdqt0kAIuydsNr-63">
          <mxGeometry width="50" height="50" relative="1" as="geometry">
            <mxPoint x="420" y="100" as="sourcePoint" />
            <mxPoint x="470" y="50" as="targetPoint" />
          </mxGeometry>
        </mxCell>
        <mxCell id="yTwdtCPdqt0kAIuydsNr-71" value="删除项目计划关联关系" style="ellipse;whiteSpace=wrap;html=1;" vertex="1" parent="1">
          <mxGeometry x="530" y="250" width="130" height="50" as="geometry" />
        </mxCell>
        <mxCell id="yTwdtCPdqt0kAIuydsNr-73" value="" style="endArrow=classic;html=1;rounded=0;exitX=1;exitY=0.5;exitDx=0;exitDy=0;entryX=0;entryY=0.5;entryDx=0;entryDy=0;" edge="1" parent="1" source="yTwdtCPdqt0kAIuydsNr-13" target="yTwdtCPdqt0kAIuydsNr-71">
          <mxGeometry width="50" height="50" relative="1" as="geometry">
            <mxPoint x="430" y="130" as="sourcePoint" />
            <mxPoint x="480" y="80" as="targetPoint" />
          </mxGeometry>
        </mxCell>
        <mxCell id="yTwdtCPdqt0kAIuydsNr-74" value="" style="endArrow=classic;html=1;rounded=0;entryX=0.034;entryY=0.767;entryDx=0;entryDy=0;entryPerimeter=0;" edge="1" parent="1" target="yTwdtCPdqt0kAIuydsNr-7">
          <mxGeometry width="50" height="50" relative="1" as="geometry">
            <mxPoint x="170" y="400" as="sourcePoint" />
            <mxPoint x="360" y="140" as="targetPoint" />
          </mxGeometry>
        </mxCell>
        <mxCell id="yTwdtCPdqt0kAIuydsNr-83" value="施工" style="shape=umlActor;verticalLabelPosition=bottom;verticalAlign=top;html=1;" vertex="1" parent="1">
          <mxGeometry x="140" y="370" width="30" height="60" as="geometry" />
        </mxCell>
        <mxCell id="yTwdtCPdqt0kAIuydsNr-84" value="业主" style="shape=umlActor;verticalLabelPosition=bottom;verticalAlign=top;html=1;" vertex="1" parent="1">
          <mxGeometry x="650" y="525" width="30" height="60" as="geometry" />
        </mxCell>
      </root>
    </mxGraphModel>
  </diagram>
</mxfile>
